<?xml version="1.0" encoding="UTF-8" standalone="no"?>
<!DOCTYPE svg PUBLIC "-//W3C//DTD SVG 1.1//EN"
 "http://www.w3.org/Graphics/SVG/1.1/DTD/svg11.dtd">
<!-- Generated by graphviz version 2.38.0 (20140413.2041)
 -->
<!-- Title: models_diagram Pages: 1 -->
<svg width="315pt" height="225pt"
 viewBox="0.00 0.00 315.16 225.00" xmlns="http://www.w3.org/2000/svg" xmlns:xlink="http://www.w3.org/1999/xlink">
<g id="graph0" class="graph" transform="scale(1 1) rotate(0) translate(4 221)">
<title>models_diagram</title>
<polygon fill="none" stroke="none" points="-4,4 -4,-221 311.155,-221 311.155,4 -4,4"/>
<!-- _diagram_info -->
<g id="node1" class="node"><title>_diagram_info</title>
<text text-anchor="start" x="8" y="-202.6" font-family="Times,serif" font-size="13.00">Models diagram</text>
<text text-anchor="start" x="8" y="-189.6" font-family="Times,serif" font-size="13.00">Date: Apr 08 2016 &#45; 20:05</text>
<text text-anchor="start" x="8" y="-176.6" font-family="Times,serif" font-size="13.00">Migration version: 20160408224529</text>
<text text-anchor="start" x="8" y="-163.6" font-family="Times,serif" font-size="13.00">Generated by RailRoady 1.4.2</text>
<text text-anchor="start" x="8" y="-150.6" font-family="Times,serif" font-size="13.00">http://railroady.prestonlee.com</text>
</g>
<!-- Inventary -->
<g id="node2" class="node"><title>Inventary</title>
<ellipse fill="none" stroke="black" cx="261.688" cy="-18" rx="43.9819" ry="18"/>
<text text-anchor="middle" x="261.688" y="-13.8" font-family="Times,serif" font-size="14.00">Inventary</text>
</g>
<!-- Operation -->
<g id="node3" class="node"><title>Operation</title>
<ellipse fill="none" stroke="black" cx="261.688" cy="-90" rx="45.4355" ry="18"/>
<text text-anchor="middle" x="261.688" y="-85.8" font-family="Times,serif" font-size="14.00">Operation</text>
</g>
<!-- Operation&#45;&gt;Inventary -->
<g id="edge1" class="edge"><title>Operation&#45;&gt;Inventary</title>
<path fill="none" stroke="#9cedae" d="M261.688,-63.6398C261.688,-57.348 261.688,-50.6053 261.688,-44.3156"/>
<ellipse fill="none" stroke="#9cedae" cx="261.688" cy="-67.6966" rx="4" ry="4"/>
<ellipse fill="#9cedae" stroke="#9cedae" cx="261.688" cy="-40.1043" rx="4" ry="4"/>
</g>
<!-- Worker -->
<g id="node4" class="node"><title>Worker</title>
<ellipse fill="none" stroke="black" cx="261.688" cy="-180.5" rx="36.3169" ry="18"/>
<text text-anchor="middle" x="261.688" y="-176.3" font-family="Times,serif" font-size="14.00">Worker</text>
</g>
<!-- Worker&#45;&gt;Operation -->
<g id="edge2" class="edge"><title>Worker&#45;&gt;Operation</title>
<path fill="none" stroke="#daa9c3" d="M261.688,-154.189C261.688,-142.971 261.688,-129.752 261.688,-118.311"/>
<ellipse fill="none" stroke="#daa9c3" cx="261.688" cy="-158.436" rx="4" ry="4"/>
<polygon fill="#daa9c3" stroke="#daa9c3" points="261.688,-118.011 266.188,-108.011 261.688,-113.011 261.688,-108.011 261.688,-108.011 261.688,-108.011 261.688,-113.011 257.188,-108.011 261.688,-118.011 261.688,-118.011"/>
</g>
</g>
</svg>
