<?xml version="1.0" encoding="UTF-8" standalone="no"?>
<!DOCTYPE svg PUBLIC "-//W3C//DTD SVG 1.1//EN"
 "http://www.w3.org/Graphics/SVG/1.1/DTD/svg11.dtd">
<!-- Generated by graphviz version 2.38.0 (20140413.2041)
 -->
<!-- Title: models_diagram Pages: 1 -->
<svg width="482pt" height="383pt"
 viewBox="0.00 0.00 481.55 383.00" xmlns="http://www.w3.org/2000/svg" xmlns:xlink="http://www.w3.org/1999/xlink">
<g id="graph0" class="graph" transform="scale(1 1) rotate(0) translate(4 379)">
<title>models_diagram</title>
<polygon fill="none" stroke="none" points="-4,4 -4,-379 477.55,-379 477.55,4 -4,4"/>
<!-- _diagram_info -->
<g id="node1" class="node"><title>_diagram_info</title>
<text text-anchor="start" x="8" y="-346.6" font-family="Times,serif" font-size="13.00">Models diagram</text>
<text text-anchor="start" x="8" y="-333.6" font-family="Times,serif" font-size="13.00">Date: Apr 08 2016 &#45; 20:05</text>
<text text-anchor="start" x="8" y="-320.6" font-family="Times,serif" font-size="13.00">Migration version: 20160408224529</text>
<text text-anchor="start" x="8" y="-307.6" font-family="Times,serif" font-size="13.00">Generated by RailRoady 1.4.2</text>
<text text-anchor="start" x="8" y="-294.6" font-family="Times,serif" font-size="13.00">http://railroady.prestonlee.com</text>
</g>
<!-- Inventary -->
<g id="node2" class="node"><title>Inventary</title>
<path fill="none" stroke="black" d="M237.825,-0.5C237.825,-0.5 461.55,-0.5 461.55,-0.5 467.55,-0.5 473.55,-6.5 473.55,-12.5 473.55,-12.5 473.55,-102.5 473.55,-102.5 473.55,-108.5 467.55,-114.5 461.55,-114.5 461.55,-114.5 237.825,-114.5 237.825,-114.5 231.825,-114.5 225.825,-108.5 225.825,-102.5 225.825,-102.5 225.825,-12.5 225.825,-12.5 225.825,-6.5 231.825,-0.5 237.825,-0.5"/>
<text text-anchor="middle" x="349.688" y="-99.3" font-family="Times,serif" font-size="14.00">Inventary</text>
<polyline fill="none" stroke="black" points="225.825,-92.5 473.55,-92.5 "/>
<text text-anchor="start" x="233.825" y="-77.3" font-family="Times,serif" font-size="14.00">id :integer</text>
<text text-anchor="start" x="233.825" y="-63.3" font-family="Times,serif" font-size="14.00">serial_number :integer</text>
<text text-anchor="start" x="233.825" y="-49.3" font-family="Times,serif" font-size="14.00">wheel_size :integer</text>
<text text-anchor="start" x="233.825" y="-35.3" font-family="Times,serif" font-size="14.00">wheel_description :text</text>
<text text-anchor="start" x="233.825" y="-21.3" font-family="Times,serif" font-size="14.00">created_at :timestamp without time zone</text>
<text text-anchor="start" x="233.825" y="-7.3" font-family="Times,serif" font-size="14.00">updated_at :timestamp without time zone</text>
</g>
<!-- Operation -->
<g id="node3" class="node"><title>Operation</title>
<path fill="none" stroke="black" d="M237.825,-151.5C237.825,-151.5 461.55,-151.5 461.55,-151.5 467.55,-151.5 473.55,-157.5 473.55,-163.5 473.55,-163.5 473.55,-225.5 473.55,-225.5 473.55,-231.5 467.55,-237.5 461.55,-237.5 461.55,-237.5 237.825,-237.5 237.825,-237.5 231.825,-237.5 225.825,-231.5 225.825,-225.5 225.825,-225.5 225.825,-163.5 225.825,-163.5 225.825,-157.5 231.825,-151.5 237.825,-151.5"/>
<text text-anchor="middle" x="349.688" y="-222.3" font-family="Times,serif" font-size="14.00">Operation</text>
<polyline fill="none" stroke="black" points="225.825,-215.5 473.55,-215.5 "/>
<text text-anchor="start" x="233.825" y="-200.3" font-family="Times,serif" font-size="14.00">id :integer</text>
<text text-anchor="start" x="233.825" y="-186.3" font-family="Times,serif" font-size="14.00">worker_id :integer</text>
<text text-anchor="start" x="233.825" y="-172.3" font-family="Times,serif" font-size="14.00">created_at :timestamp without time zone</text>
<text text-anchor="start" x="233.825" y="-158.3" font-family="Times,serif" font-size="14.00">updated_at :timestamp without time zone</text>
</g>
<!-- Operation&#45;&gt;Inventary -->
<g id="edge1" class="edge"><title>Operation&#45;&gt;Inventary</title>
<path fill="none" stroke="#a18609" d="M349.688,-143.113C349.688,-136.422 349.688,-129.49 349.688,-122.605"/>
<ellipse fill="none" stroke="#a18609" cx="349.688" cy="-147.156" rx="4" ry="4"/>
<ellipse fill="#a18609" stroke="#a18609" cx="349.688" cy="-118.563" rx="4" ry="4"/>
</g>
<!-- Worker -->
<g id="node4" class="node"><title>Worker</title>
<path fill="none" stroke="black" d="M237.825,-274.5C237.825,-274.5 461.55,-274.5 461.55,-274.5 467.55,-274.5 473.55,-280.5 473.55,-286.5 473.55,-286.5 473.55,-362.5 473.55,-362.5 473.55,-368.5 467.55,-374.5 461.55,-374.5 461.55,-374.5 237.825,-374.5 237.825,-374.5 231.825,-374.5 225.825,-368.5 225.825,-362.5 225.825,-362.5 225.825,-286.5 225.825,-286.5 225.825,-280.5 231.825,-274.5 237.825,-274.5"/>
<text text-anchor="middle" x="349.688" y="-359.3" font-family="Times,serif" font-size="14.00">Worker</text>
<polyline fill="none" stroke="black" points="225.825,-352.5 473.55,-352.5 "/>
<text text-anchor="start" x="233.825" y="-337.3" font-family="Times,serif" font-size="14.00">id :integer</text>
<text text-anchor="start" x="233.825" y="-323.3" font-family="Times,serif" font-size="14.00">name :character varying</text>
<text text-anchor="start" x="233.825" y="-309.3" font-family="Times,serif" font-size="14.00">mail :character varying</text>
<text text-anchor="start" x="233.825" y="-295.3" font-family="Times,serif" font-size="14.00">created_at :timestamp without time zone</text>
<text text-anchor="start" x="233.825" y="-281.3" font-family="Times,serif" font-size="14.00">updated_at :timestamp without time zone</text>
</g>
<!-- Worker&#45;&gt;Operation -->
<g id="edge2" class="edge"><title>Worker&#45;&gt;Operation</title>
<path fill="none" stroke="#281d8a" d="M349.688,-266.331C349.688,-260.142 349.688,-253.867 349.688,-247.74"/>
<ellipse fill="none" stroke="#281d8a" cx="349.688" cy="-270.378" rx="4" ry="4"/>
<polygon fill="#281d8a" stroke="#281d8a" points="349.688,-247.611 354.188,-237.611 349.688,-242.611 349.688,-237.611 349.688,-237.611 349.688,-237.611 349.688,-242.611 345.188,-237.611 349.688,-247.611 349.688,-247.611"/>
</g>
</g>
</svg>
